<svg width="512" height="512" viewBox="0 0 512 512" fill="none" xmlns="http://www.w3.org/2000/svg">
<rect width="512" height="512" rx="96" fill="#F5F5F5"/>
<path d="M256 96C167.589 96 96 167.589 96 256C96 344.411 167.589 416 256 416C344.411 416 416 344.411 416 256C416 167.589 344.411 96 256 96Z" fill="#70CBC9"/>
<path d="M256 160C202.981 160 160 202.981 160 256C160 309.019 202.981 352 256 352C309.019 352 352 309.019 352 256C352 202.981 309.019 160 256 160Z" fill="#A7D9ED"/>
<path d="M256 208C229.49 208 208 229.49 208 256C208 282.51 229.49 304 256 304C282.51 304 304 282.51 304 256C304 229.49 282.51 208 256 208Z" fill="white"/>
</svg>
